<svg width="65" height="65" viewBox="0 0 65 65" fill="none" xmlns="http://www.w3.org/2000/svg">
<circle cx="32.5" cy="32.5" r="32.5" fill="#2F40D5"/>
<path d="M5.1717 28.2549C5.1717 27.6112 5.36761 27.1144 5.75944 26.7645C6.16526 26.4007 6.68303 26.2188 7.31275 26.2188C7.97046 26.2188 8.49523 26.4007 8.88705 26.7645C9.27888 27.1144 9.47479 27.6112 9.47479 28.2549V37.1969C9.47479 37.4628 9.54476 37.6517 9.6847 37.7637C9.82464 37.8616 10.0555 37.8196 10.3774 37.6377C11.0771 37.2319 11.6998 36.91 12.2456 36.6721C12.7913 36.4203 13.3931 36.2943 14.0508 36.2943C14.9604 36.2943 15.6461 36.5322 16.1078 37.008C16.5696 37.4838 16.8005 38.1065 16.8005 38.8762C16.8005 39.7018 16.5487 40.3385 16.0449 40.7863C15.5551 41.2341 14.7644 41.458 13.6729 41.458H9.34885C8.42526 41.458 7.6556 41.3531 7.03987 41.1432C6.42415 40.9193 5.95535 40.5204 5.6335 39.9467C5.32563 39.3729 5.1717 38.5403 5.1717 37.4488V28.2549ZM23.2875 41.563C21.7901 41.563 20.5237 41.2341 19.4882 40.5764C18.4526 39.9187 17.669 39.0091 17.1372 37.8476C16.6054 36.6861 16.3396 35.3497 16.3396 33.8384C16.3396 32.3411 16.6054 31.0117 17.1372 29.8502C17.669 28.6747 18.4526 27.7581 19.4882 27.1004C20.5237 26.4287 21.7901 26.0928 23.2875 26.0928C24.7848 26.0928 26.0443 26.4287 27.0658 27.1004C28.1013 27.7581 28.885 28.6747 29.4168 29.8502C29.9485 31.0117 30.2144 32.3411 30.2144 33.8384C30.2144 35.3497 29.9485 36.6861 29.4168 37.8476C28.885 39.0091 28.1013 39.9187 27.0658 40.5764C26.0443 41.2341 24.7848 41.563 23.2875 41.563ZM18.9844 33.5025C18.9844 33.9364 19.0893 34.3492 19.2993 34.741C19.5092 35.1188 19.922 35.4267 20.5377 35.6646C21.1534 35.8885 22.07 36.0004 23.2875 36.0004C24.5049 36.0004 25.4145 35.8885 26.0163 35.6646C26.632 35.4267 27.0448 35.1188 27.2547 34.741C27.4646 34.3492 27.5696 33.9364 27.5696 33.5025C27.5696 33.0547 27.4646 32.6559 27.2547 32.3061C27.0448 31.9422 26.632 31.6554 26.0163 31.4455C25.4145 31.2216 24.5049 31.1096 23.2875 31.1096C22.07 31.1096 21.1534 31.2216 20.5377 31.4455C19.922 31.6554 19.5092 31.9422 19.2993 32.3061C19.0893 32.6559 18.9844 33.0547 18.9844 33.5025ZM36.6597 41.6259C35.5402 41.6259 34.5676 41.3041 33.742 40.6604C32.9164 40.0027 32.2796 39.1071 31.8318 37.9736C31.384 36.8261 31.1601 35.5316 31.1601 34.0903C31.1601 32.7469 31.3561 31.5714 31.7479 30.5639C32.1537 29.5423 32.6995 28.6957 33.3851 28.024C34.0848 27.3383 34.8895 26.8275 35.7991 26.4917C36.7227 26.1418 37.6952 25.9669 38.7168 25.9669C40.592 25.9669 41.9773 26.2328 42.8729 26.7645C43.7825 27.2823 44.2373 27.954 44.2373 28.7796C44.2373 29.4234 44.0694 29.9901 43.7336 30.4799C43.4117 30.9697 42.9219 31.2146 42.2642 31.2146C41.8164 31.2146 41.3896 31.1726 40.9838 31.0886C40.592 31.0047 40.1861 30.9277 39.7663 30.8577C39.3605 30.7738 38.9057 30.7318 38.4019 30.7318C37.2964 30.7318 36.4988 31.0466 36.009 31.6764C35.5332 32.3061 35.2953 33.0967 35.2953 34.0483C35.2953 34.818 35.4492 35.4477 35.7571 35.9375C36.079 36.4273 36.4988 36.7911 37.0165 37.029C37.5483 37.2529 38.136 37.3648 38.7798 37.3648C39.3115 37.3648 39.8083 37.2459 40.2701 37.008C40.7319 36.7701 41.0258 36.3293 41.1517 35.6856H40.1232C39.6334 35.6856 39.2555 35.5386 38.9897 35.2448C38.7238 34.9369 38.5908 34.5451 38.5908 34.0693C38.5908 33.5935 38.7238 33.2087 38.9897 32.9148C39.2555 32.6209 39.6334 32.474 40.1232 32.474H42.642C43.5516 32.474 44.1884 32.7189 44.5522 33.2087C44.93 33.6845 45.1189 34.3982 45.1189 35.3497V39.275C45.1189 40.0027 44.923 40.5554 44.5312 40.9333C44.1394 41.3111 43.6216 41.5 42.9779 41.5C42.2922 41.5 41.7534 41.3111 41.3616 40.9333C40.9698 40.5554 40.7739 40.0027 40.7739 39.275V37.9736H40.396C40.396 39.247 40.0742 40.1776 39.4305 40.7653C38.7868 41.3391 37.9261 41.6259 36.8486 41.6259H36.6597ZM52.7031 41.563C51.2058 41.563 49.9394 41.2341 48.9038 40.5764C47.8683 39.9187 47.0846 39.0091 46.5529 37.8476C46.0211 36.6861 45.7552 35.3497 45.7552 33.8384C45.7552 32.3411 46.0211 31.0117 46.5529 29.8502C47.0846 28.6747 47.8683 27.7581 48.9038 27.1004C49.9394 26.4287 51.2058 26.0928 52.7031 26.0928C54.2005 26.0928 55.4599 26.4287 56.4815 27.1004C57.517 27.7581 58.3007 28.6747 58.8324 29.8502C59.3642 31.0117 59.6301 32.3411 59.6301 33.8384C59.6301 35.3497 59.3642 36.6861 58.8324 37.8476C58.3007 39.0091 57.517 39.9187 56.4815 40.5764C55.4599 41.2341 54.2005 41.563 52.7031 41.563ZM48.4 33.5025C48.4 33.9364 48.505 34.3492 48.7149 34.741C48.9248 35.1188 49.3376 35.4267 49.9534 35.6646C50.5691 35.8885 51.4857 36.0004 52.7031 36.0004C53.9206 36.0004 54.8302 35.8885 55.4319 35.6646C56.0477 35.4267 56.4605 35.1188 56.6704 34.741C56.8803 34.3492 56.9852 33.9364 56.9852 33.5025C56.9852 33.0547 56.8803 32.6559 56.6704 32.3061C56.4605 31.9422 56.0477 31.6554 55.4319 31.4455C54.8302 31.2216 53.9206 31.1096 52.7031 31.1096C51.4857 31.1096 50.5691 31.2216 49.9534 31.4455C49.3376 31.6554 48.9248 31.9422 48.7149 32.3061C48.505 32.6559 48.4 33.0547 48.4 33.5025Z" fill="white"/>
</svg>
