<svg width="55" height="17" viewBox="0 0 55 17" fill="none" xmlns="http://www.w3.org/2000/svg">
<path d="M0.171702 3.25488C0.171702 2.61116 0.367615 2.11438 0.759441 1.76454C1.16526 1.4007 1.68303 1.21878 2.31275 1.21878C2.97046 1.21878 3.49523 1.4007 3.88705 1.76454C4.27888 2.11438 4.47479 2.61116 4.47479 3.25488V12.1969C4.47479 12.4628 4.54476 12.6517 4.6847 12.7637C4.82464 12.8616 5.05553 12.8196 5.37739 12.6377C6.07708 12.2319 6.69981 11.91 7.24556 11.6721C7.79132 11.4203 8.39305 11.2943 9.05076 11.2943C9.96036 11.2943 10.6461 11.5322 11.1078 12.008C11.5696 12.4838 11.8005 13.1065 11.8005 13.8762C11.8005 14.7018 11.5487 15.3385 11.0449 15.7863C10.5551 16.2341 9.76445 16.458 8.67293 16.458H4.34885C3.42526 16.458 2.6556 16.3531 2.03987 16.1432C1.42415 15.9193 0.955354 15.5204 0.633497 14.9467C0.325634 14.3729 0.171702 13.5403 0.171702 12.4488V3.25488ZM18.2875 16.563C16.7901 16.563 15.5237 16.2341 14.4882 15.5764C13.4526 14.9187 12.669 14.0091 12.1372 12.8476C11.6054 11.6861 11.3396 10.3497 11.3396 8.8384C11.3396 7.34106 11.6054 6.01165 12.1372 4.85017C12.669 3.67469 13.4526 2.7581 14.4882 2.10039C15.5237 1.42869 16.7901 1.09284 18.2875 1.09284C19.7848 1.09284 21.0443 1.42869 22.0658 2.10039C23.1013 2.7581 23.885 3.67469 24.4168 4.85017C24.9485 6.01165 25.2144 7.34106 25.2144 8.8384C25.2144 10.3497 24.9485 11.6861 24.4168 12.8476C23.885 14.0091 23.1013 14.9187 22.0658 15.5764C21.0443 16.2341 19.7848 16.563 18.2875 16.563ZM13.9844 8.50255C13.9844 8.93636 14.0893 9.34917 14.2993 9.741C14.5092 10.1188 14.922 10.4267 15.5377 10.6646C16.1534 10.8885 17.07 11.0004 18.2875 11.0004C19.5049 11.0004 20.4145 10.8885 21.0163 10.6646C21.632 10.4267 22.0448 10.1188 22.2547 9.741C22.4646 9.34917 22.5696 8.93636 22.5696 8.50255C22.5696 8.05475 22.4646 7.65592 22.2547 7.30608C22.0448 6.94224 21.632 6.65537 21.0163 6.44546C20.4145 6.22156 19.5049 6.10961 18.2875 6.10961C17.07 6.10961 16.1534 6.22156 15.5377 6.44546C14.922 6.65537 14.5092 6.94224 14.2993 7.30608C14.0893 7.65592 13.9844 8.05475 13.9844 8.50255ZM31.6597 16.6259C30.5402 16.6259 29.5676 16.3041 28.742 15.6604C27.9164 15.0027 27.2796 14.1071 26.8318 12.9736C26.384 11.8261 26.1601 10.5316 26.1601 9.09029C26.1601 7.74688 26.3561 6.57141 26.7479 5.56385C27.1537 4.54231 27.6995 3.69568 28.3851 3.02398C29.0848 2.33828 29.8895 1.82751 30.7991 1.49166C31.7227 1.14182 32.6952 0.966893 33.7168 0.966893C35.592 0.966893 36.9773 1.23278 37.8729 1.76454C38.7825 2.28231 39.2373 2.95401 39.2373 3.77965C39.2373 4.42336 39.0694 4.99011 38.7336 5.47989C38.4117 5.96967 37.9219 6.21456 37.2642 6.21456C36.8164 6.21456 36.3896 6.17258 35.9838 6.08862C35.592 6.00466 35.1861 5.92769 34.7663 5.85772C34.3605 5.77376 33.9057 5.73178 33.4019 5.73178C32.2964 5.73178 31.4988 6.04664 31.009 6.67636C30.5332 7.30608 30.2953 8.09673 30.2953 9.04831C30.2953 9.81797 30.4492 10.4477 30.7571 10.9375C31.079 11.4273 31.4988 11.7911 32.0165 12.029C32.5483 12.2529 33.136 12.3648 33.7798 12.3648C34.3115 12.3648 34.8083 12.2459 35.2701 12.008C35.7319 11.7701 36.0258 11.3293 36.1517 10.6856H35.1232C34.6334 10.6856 34.2555 10.5386 33.9897 10.2448C33.7238 9.93691 33.5908 9.54509 33.5908 9.0693C33.5908 8.59351 33.7238 8.20868 33.9897 7.91481C34.2555 7.62094 34.6334 7.47401 35.1232 7.47401H37.642C38.5516 7.47401 39.1884 7.7189 39.5522 8.20868C39.93 8.68447 40.1189 9.39815 40.1189 10.3497V14.275C40.1189 15.0027 39.923 15.5554 39.5312 15.9333C39.1394 16.3111 38.6216 16.5 37.9779 16.5C37.2922 16.5 36.7534 16.3111 36.3616 15.9333C35.9698 15.5554 35.7739 15.0027 35.7739 14.275V12.9736H35.396C35.396 14.247 35.0742 15.1776 34.4305 15.7653C33.7868 16.3391 32.9261 16.6259 31.8486 16.6259H31.6597ZM47.7031 16.563C46.2058 16.563 44.9394 16.2341 43.9038 15.5764C42.8683 14.9187 42.0846 14.0091 41.5529 12.8476C41.0211 11.6861 40.7552 10.3497 40.7552 8.8384C40.7552 7.34106 41.0211 6.01165 41.5529 4.85017C42.0846 3.67469 42.8683 2.7581 43.9038 2.10039C44.9394 1.42869 46.2058 1.09284 47.7031 1.09284C49.2005 1.09284 50.4599 1.42869 51.4815 2.10039C52.517 2.7581 53.3007 3.67469 53.8324 4.85017C54.3642 6.01165 54.6301 7.34106 54.6301 8.8384C54.6301 10.3497 54.3642 11.6861 53.8324 12.8476C53.3007 14.0091 52.517 14.9187 51.4815 15.5764C50.4599 16.2341 49.2005 16.563 47.7031 16.563ZM43.4 8.50255C43.4 8.93636 43.505 9.34917 43.7149 9.741C43.9248 10.1188 44.3376 10.4267 44.9534 10.6646C45.5691 10.8885 46.4857 11.0004 47.7031 11.0004C48.9206 11.0004 49.8302 10.8885 50.4319 10.6646C51.0477 10.4267 51.4605 10.1188 51.6704 9.741C51.8803 9.34917 51.9852 8.93636 51.9852 8.50255C51.9852 8.05475 51.8803 7.65592 51.6704 7.30608C51.4605 6.94224 51.0477 6.65537 50.4319 6.44546C49.8302 6.22156 48.9206 6.10961 47.7031 6.10961C46.4857 6.10961 45.5691 6.22156 44.9534 6.44546C44.3376 6.65537 43.9248 6.94224 43.7149 7.30608C43.505 7.65592 43.4 8.05475 43.4 8.50255Z" fill="white"/>
</svg>
